<svg xmlns="http://www.w3.org/2000/svg" xmlns:xlink="http://www.w3.org/1999/xlink" width="500" zoomAndPan="magnify" viewBox="0 0 375 299.999988" height="400" preserveAspectRatio="xMidYMid meet" version="1.0"><defs><clipPath id="id1"><path d="M 21 17.355469 L 354 17.355469 L 354 176 L 21 176 Z M 21 17.355469 " clip-rule="nonzero"/></clipPath><clipPath id="id2"><path d="M 244 34 L 371.410156 34 L 371.410156 266 L 244 266 Z M 244 34 " clip-rule="nonzero"/></clipPath><clipPath id="id3"><path d="M 21 158 L 354 158 L 354 282.855469 L 21 282.855469 Z M 21 158 " clip-rule="nonzero"/></clipPath></defs><path fill="rgb(44.309998%, 78.819275%, 80.778503%)" d="M 131.285156 150.140625 L 12.589844 34.664062 C 7.238281 41.824219 4.0625 50.707031 4.0625 60.316406 L 4.0625 239.964844 C 4.0625 249.570312 7.238281 258.453125 12.589844 265.613281 L 131.285156 150.140625 " fill-opacity="1" fill-rule="nonzero"/><g clip-path="url(#id1)"><path fill="rgb(44.309998%, 78.819275%, 80.778503%)" d="M 166.535156 166.792969 C 178.382812 178.316406 196.9375 178.316406 208.785156 166.792969 L 353.757812 25.753906 C 346.632812 20.496094 337.835938 17.378906 328.320312 17.378906 L 47 17.378906 C 37.484375 17.378906 28.6875 20.496094 21.5625 25.753906 L 166.535156 166.792969 " fill-opacity="1" fill-rule="nonzero"/></g><g clip-path="url(#id2)"><path fill="rgb(44.309998%, 78.819275%, 80.778503%)" d="M 362.730469 34.664062 L 244.035156 150.140625 L 362.730469 265.613281 C 368.082031 258.453125 371.257812 249.570312 371.257812 239.964844 L 371.257812 60.316406 C 371.257812 50.707031 368.082031 41.824219 362.730469 34.664062 " fill-opacity="1" fill-rule="nonzero"/></g><g clip-path="url(#id3)"><path fill="rgb(44.309998%, 78.819275%, 80.778503%)" d="M 234.96875 158.960938 L 217.601562 175.855469 C 209.539062 183.695312 198.90625 188.015625 187.660156 188.015625 C 176.414062 188.015625 165.78125 183.695312 157.71875 175.855469 L 140.351562 158.960938 L 21.5625 274.523438 C 28.6875 279.78125 37.484375 282.898438 47 282.898438 L 328.320312 282.898438 C 337.835938 282.898438 346.632812 279.78125 353.757812 274.523438 L 234.96875 158.960938 " fill-opacity="1" fill-rule="nonzero"/></g></svg>