<svg xmlns="http://www.w3.org/2000/svg" xmlns:xlink="http://www.w3.org/1999/xlink" width="500" zoomAndPan="magnify" viewBox="0 0 375 374.999991" height="500" preserveAspectRatio="xMidYMid meet" version="1.0"><path fill="rgb(44.309998%, 78.819275%, 80.778503%)" d="M 312.78125 0 L 62.21875 0 C 60.179688 0.00390625 58.148438 0.105469 56.121094 0.308594 C 54.09375 0.507812 52.082031 0.808594 50.085938 1.207031 C 48.085938 1.609375 46.113281 2.105469 44.164062 2.699219 C 42.21875 3.289062 40.300781 3.976562 38.421875 4.757812 C 36.539062 5.539062 34.699219 6.410156 32.90625 7.371094 C 31.109375 8.332031 29.363281 9.378906 27.671875 10.511719 C 25.976562 11.644531 24.34375 12.855469 22.769531 14.148438 C 21.195312 15.441406 19.6875 16.804688 18.246094 18.246094 C 16.804688 19.6875 15.441406 21.195312 14.148438 22.769531 C 12.855469 24.34375 11.644531 25.976562 10.511719 27.671875 C 9.378906 29.363281 8.332031 31.109375 7.371094 32.90625 C 6.410156 34.699219 5.539062 36.539062 4.757812 38.421875 C 3.976562 40.300781 3.289062 42.21875 2.699219 44.164062 C 2.105469 46.113281 1.609375 48.085938 1.207031 50.085938 C 0.808594 52.082031 0.507812 54.09375 0.308594 56.121094 C 0.105469 58.148438 0.00390625 60.179688 0 62.21875 L 0 312.800781 C 0.00390625 314.835938 0.105469 316.867188 0.308594 318.894531 C 0.511719 320.921875 0.8125 322.933594 1.210938 324.929688 C 1.613281 326.925781 2.109375 328.898438 2.699219 330.847656 C 3.292969 332.796875 3.980469 334.710938 4.761719 336.589844 C 5.542969 338.472656 6.414062 340.308594 7.375 342.105469 C 8.335938 343.902344 9.382812 345.644531 10.515625 347.339844 C 11.648438 349.03125 12.859375 350.664062 14.152344 352.238281 C 15.445312 353.8125 16.8125 355.320312 18.253906 356.757812 C 19.691406 358.199219 21.199219 359.566406 22.773438 360.855469 C 24.347656 362.148438 25.984375 363.359375 27.675781 364.492188 C 29.367188 365.625 31.113281 366.671875 32.910156 367.632812 C 34.703125 368.59375 36.542969 369.464844 38.425781 370.242188 C 40.304688 371.023438 42.21875 371.710938 44.167969 372.304688 C 46.117188 372.894531 48.089844 373.390625 50.085938 373.792969 C 52.085938 374.191406 54.097656 374.492188 56.121094 374.691406 C 58.148438 374.894531 60.179688 374.996094 62.21875 375 L 312.78125 375 C 314.820312 374.996094 316.851562 374.894531 318.878906 374.691406 C 320.902344 374.492188 322.914062 374.191406 324.914062 373.792969 C 326.910156 373.390625 328.882812 372.894531 330.832031 372.304688 C 332.78125 371.710938 334.695312 371.023438 336.574219 370.242188 C 338.457031 369.464844 340.296875 368.59375 342.089844 367.632812 C 343.886719 366.671875 345.632812 365.625 347.324219 364.492188 C 349.019531 363.359375 350.652344 362.148438 352.226562 360.855469 C 353.800781 359.566406 355.308594 358.199219 356.746094 356.757812 C 358.1875 355.320312 359.554688 353.8125 360.847656 352.238281 C 362.140625 350.664062 363.351562 349.03125 364.484375 347.339844 C 365.617188 345.644531 366.664062 343.902344 367.625 342.105469 C 368.585938 340.308594 369.457031 338.472656 370.238281 336.589844 C 371.019531 334.710938 371.707031 332.796875 372.300781 330.847656 C 372.890625 328.898438 373.386719 326.925781 373.789062 324.929688 C 374.1875 322.933594 374.488281 320.921875 374.691406 318.894531 C 374.894531 316.867188 374.996094 314.835938 375 312.800781 L 375 62.21875 C 374.996094 60.179688 374.894531 58.148438 374.691406 56.121094 C 374.492188 54.09375 374.191406 52.082031 373.792969 50.085938 C 373.390625 48.085938 372.894531 46.113281 372.300781 44.164062 C 371.710938 42.21875 371.023438 40.300781 370.242188 38.421875 C 369.460938 36.539062 368.589844 34.699219 367.628906 32.90625 C 366.667969 31.109375 365.621094 29.363281 364.488281 27.671875 C 363.355469 25.976562 362.144531 24.34375 360.851562 22.769531 C 359.558594 21.195312 358.195312 19.6875 356.753906 18.246094 C 355.3125 16.804688 353.804688 15.441406 352.230469 14.148438 C 350.65625 12.855469 349.023438 11.644531 347.328125 10.511719 C 345.636719 9.378906 343.890625 8.332031 342.09375 7.371094 C 340.300781 6.410156 338.460938 5.539062 336.578125 4.757812 C 334.699219 3.976562 332.78125 3.289062 330.835938 2.699219 C 328.886719 2.105469 326.914062 1.609375 324.914062 1.207031 C 322.917969 0.808594 320.90625 0.507812 318.878906 0.308594 C 316.851562 0.105469 314.820312 0.00390625 312.78125 0 Z M 233.347656 328.746094 C 232.109375 329.109375 230.84375 329.324219 229.550781 329.398438 C 228.261719 329.46875 226.980469 329.390625 225.707031 329.167969 C 224.433594 328.941406 223.203125 328.574219 222.015625 328.066406 C 220.828125 327.558594 219.714844 326.917969 218.675781 326.152344 C 217.855469 325.441406 217.125 324.648438 216.480469 323.773438 C 215.835938 322.902344 215.296875 321.96875 214.855469 320.976562 C 214.417969 319.984375 214.089844 318.957031 213.875 317.894531 C 213.660156 316.832031 213.566406 315.757812 213.585938 314.675781 L 213.585938 306.976562 C 213.585938 299.917969 213.699219 289.238281 213.699219 276.976562 C 213.878906 275.21875 213.871094 273.457031 213.675781 271.699219 C 213.480469 269.9375 213.101562 268.21875 212.539062 266.542969 C 211.976562 264.863281 211.242188 263.261719 210.339844 261.742188 C 209.4375 260.21875 208.382812 258.808594 207.179688 257.511719 C 206.597656 257.007812 206.101562 256.433594 205.691406 255.789062 C 205.277344 255.140625 204.964844 254.449219 204.753906 253.710938 C 204.542969 252.972656 204.445312 252.21875 204.453125 251.453125 C 204.460938 250.6875 204.578125 249.9375 204.808594 249.203125 C 205.035156 248.472656 205.363281 247.785156 205.789062 247.148438 C 206.214844 246.511719 206.726562 245.949219 207.316406 245.460938 C 207.910156 244.972656 208.558594 244.578125 209.265625 244.277344 C 209.96875 243.976562 210.703125 243.785156 211.46875 243.699219 C 240.277344 240.441406 266.902344 231.015625 266.902344 183.75 C 266.957031 180.859375 266.734375 177.992188 266.238281 175.144531 C 265.742188 172.296875 264.980469 169.519531 263.953125 166.820312 C 262.929688 164.117188 261.65625 161.535156 260.136719 159.078125 C 258.617188 156.621094 256.875 154.328125 254.917969 152.199219 C 254.417969 151.652344 254.003906 151.046875 253.675781 150.382812 C 253.347656 149.71875 253.117188 149.023438 252.980469 148.292969 C 252.847656 147.5625 252.816406 146.832031 252.886719 146.09375 C 252.960938 145.355469 253.132812 144.640625 253.402344 143.949219 C 254.859375 139.804688 255.613281 135.53125 255.664062 131.136719 C 255.710938 126.738281 255.058594 122.453125 253.695312 118.273438 C 248.703125 119.398438 243.890625 121.046875 239.253906 123.21875 C 234.621094 125.386719 230.269531 128.027344 226.207031 131.136719 C 225.25 131.78125 224.203125 132.199219 223.0625 132.386719 C 221.925781 132.574219 220.796875 132.515625 219.683594 132.210938 C 209.148438 129.347656 198.417969 127.882812 187.5 127.808594 C 176.617188 127.855469 165.925781 129.308594 155.429688 132.179688 C 154.316406 132.492188 153.191406 132.554688 152.050781 132.367188 C 150.910156 132.175781 149.863281 131.757812 148.90625 131.101562 C 144.84375 127.984375 140.488281 125.34375 135.84375 123.179688 C 131.199219 121.019531 126.375 119.386719 121.371094 118.289062 C 120.015625 122.457031 119.367188 126.730469 119.421875 131.113281 C 119.480469 135.496094 120.238281 139.753906 121.695312 143.886719 C 121.972656 144.578125 122.152344 145.292969 122.226562 146.035156 C 122.304688 146.773438 122.273438 147.511719 122.140625 148.242188 C 122.007812 148.976562 121.777344 149.675781 121.445312 150.34375 C 121.117188 151.011719 120.699219 151.621094 120.195312 152.167969 C 118.234375 154.292969 116.496094 156.585938 114.972656 159.042969 C 113.449219 161.5 112.175781 164.082031 111.148438 166.785156 C 110.121094 169.484375 109.359375 172.261719 108.863281 175.109375 C 108.363281 177.957031 108.144531 180.828125 108.195312 183.71875 C 108.195312 231 136.175781 240.621094 163.53125 243.800781 C 164.046875 243.859375 164.554688 243.964844 165.046875 244.125 C 165.542969 244.28125 166.015625 244.488281 166.46875 244.738281 C 166.925781 244.992188 167.347656 245.285156 167.746094 245.621094 C 168.140625 245.957031 168.5 246.328125 168.824219 246.734375 C 169.144531 247.140625 169.425781 247.574219 169.660156 248.039062 C 169.898438 248.5 170.089844 248.980469 170.230469 249.480469 C 170.371094 249.980469 170.464844 250.488281 170.507812 251.003906 C 170.546875 251.523438 170.539062 252.039062 170.476562 252.554688 C 170.402344 253.0625 170.28125 253.5625 170.113281 254.046875 C 169.945312 254.535156 169.734375 255 169.476562 255.445312 C 169.21875 255.890625 168.921875 256.308594 168.585938 256.699219 C 168.25 257.089844 167.882812 257.445312 167.476562 257.761719 C 167.074219 258.082031 166.644531 258.363281 166.1875 258.601562 C 165.734375 258.839844 165.257812 259.03125 164.765625 259.179688 C 164.273438 259.332031 163.769531 259.429688 163.257812 259.484375 C 162.746094 259.539062 162.234375 259.542969 161.722656 259.5 C 131.96875 256.042969 92.414062 244.449219 92.414062 183.71875 C 92.375 180.246094 92.625 176.796875 93.167969 173.371094 C 93.710938 169.941406 94.539062 166.582031 95.648438 163.292969 C 96.757812 160.007812 98.136719 156.835938 99.78125 153.777344 C 101.429688 150.722656 103.320312 147.828125 105.457031 145.09375 C 104.6875 141.992188 104.167969 138.855469 103.898438 135.671875 C 103.628906 132.492188 103.613281 129.308594 103.851562 126.125 C 104.089844 122.941406 104.578125 119.796875 105.320312 116.691406 C 106.058594 113.585938 107.039062 110.558594 108.261719 107.609375 C 108.691406 106.511719 109.335938 105.558594 110.191406 104.746094 C 111.046875 103.9375 112.035156 103.347656 113.152344 102.976562 C 115.613281 102.164062 128.722656 99.292969 154.628906 116.023438 C 160.003906 114.695312 165.4375 113.695312 170.933594 113.027344 C 176.425781 112.359375 181.941406 112.023438 187.476562 112.023438 C 193.011719 112.023438 198.523438 112.359375 204.019531 113.027344 C 209.511719 113.695312 214.949219 114.695312 220.320312 116.023438 C 246.195312 99.277344 259.320312 102.148438 261.75 102.976562 C 262.867188 103.347656 263.851562 103.933594 264.707031 104.742188 C 265.5625 105.550781 266.207031 106.5 266.640625 107.59375 C 267.886719 110.535156 268.890625 113.5625 269.644531 116.667969 C 270.402344 119.773438 270.902344 122.917969 271.148438 126.105469 C 271.394531 129.292969 271.386719 132.480469 271.117188 135.664062 C 270.847656 138.847656 270.320312 141.992188 269.542969 145.09375 C 271.679688 147.828125 273.570312 150.722656 275.214844 153.777344 C 276.859375 156.828125 278.238281 160 279.347656 163.289062 C 280.460938 166.574219 281.285156 169.929688 281.828125 173.359375 C 282.375 176.785156 282.625 180.230469 282.585938 183.699219 C 282.585938 236.265625 253.027344 251.984375 225.75 257.414062 C 228.273438 263.691406 229.492188 270.210938 229.402344 276.976562 C 229.402344 289.273438 229.320312 299.96875 229.273438 307.09375 L 229.273438 313.222656 C 231.648438 312.398438 233.996094 311.503906 236.320312 310.542969 C 238.644531 309.578125 240.9375 308.550781 243.199219 307.453125 C 245.464844 306.355469 247.691406 305.191406 249.886719 303.964844 C 252.082031 302.738281 254.238281 301.445312 256.359375 300.089844 C 258.476562 298.738281 260.554688 297.320312 262.589844 295.847656 C 264.628906 294.371094 266.617188 292.835938 268.566406 291.242188 C 270.511719 289.648438 272.410156 288 274.257812 286.296875 C 276.105469 284.589844 277.90625 282.835938 279.652344 281.023438 C 281.398438 279.214844 283.089844 277.355469 284.726562 275.445312 C 286.363281 273.539062 287.945312 271.582031 289.464844 269.582031 C 290.988281 267.578125 292.453125 265.535156 293.855469 263.445312 C 295.257812 261.359375 296.597656 259.230469 297.875 257.066406 C 299.152344 254.898438 300.367188 252.699219 301.515625 250.460938 C 302.664062 248.222656 303.746094 245.953125 304.761719 243.652344 C 305.777344 241.351562 306.722656 239.023438 307.601562 236.667969 C 308.484375 234.3125 309.292969 231.929688 310.03125 229.527344 C 310.769531 227.125 311.4375 224.699219 312.035156 222.257812 C 312.632812 219.8125 313.160156 217.355469 313.613281 214.882812 C 314.066406 212.410156 314.445312 209.921875 314.753906 207.425781 C 315.058594 204.929688 315.292969 202.429688 315.453125 199.917969 C 315.613281 197.410156 315.703125 194.894531 315.714844 192.382812 C 315.726562 189.867188 315.667969 187.351562 315.53125 184.839844 C 315.398438 182.332031 315.191406 179.824219 314.910156 177.324219 C 314.628906 174.828125 314.273438 172.339844 313.847656 169.859375 C 313.417969 167.382812 312.917969 164.917969 312.347656 162.46875 C 311.777344 160.019531 311.132812 157.589844 310.417969 155.175781 C 309.703125 152.765625 308.921875 150.378906 308.066406 148.011719 C 307.210938 145.648438 306.289062 143.308594 305.296875 140.996094 C 304.304688 138.6875 303.246094 136.40625 302.121094 134.15625 C 300.996094 131.90625 299.804688 129.695312 298.550781 127.515625 C 297.296875 125.335938 295.976562 123.195312 294.597656 121.09375 C 293.214844 118.988281 291.773438 116.929688 290.273438 114.914062 C 288.769531 112.894531 287.210938 110.921875 285.59375 108.996094 C 283.976562 107.070312 282.304688 105.195312 280.578125 103.367188 C 278.851562 101.539062 277.070312 99.761719 275.238281 98.039062 C 273.40625 96.316406 271.527344 94.648438 269.597656 93.035156 C 267.667969 91.421875 265.695312 89.867188 263.671875 88.367188 C 261.652344 86.871094 259.589844 85.433594 257.484375 84.058594 C 255.378906 82.679688 253.234375 81.367188 251.054688 80.117188 C 248.871094 78.867188 246.65625 77.679688 244.402344 76.558594 C 242.152344 75.441406 239.871094 74.386719 237.558594 73.398438 C 235.242188 72.414062 232.902344 71.496094 230.535156 70.644531 C 228.167969 69.796875 225.777344 69.015625 223.367188 68.308594 C 220.953125 67.597656 218.523438 66.960938 216.070312 66.394531 C 213.621094 65.828125 211.15625 65.332031 208.675781 64.910156 C 206.199219 64.488281 203.707031 64.140625 201.207031 63.863281 C 198.707031 63.585938 196.203125 63.382812 193.691406 63.253906 C 191.179688 63.125 188.667969 63.070312 186.152344 63.089844 C 183.636719 63.109375 181.125 63.199219 178.613281 63.367188 C 176.105469 63.53125 173.601562 63.769531 171.105469 64.082031 C 168.613281 64.394531 166.128906 64.78125 163.65625 65.238281 C 161.183594 65.695312 158.726562 66.226562 156.28125 66.828125 C 153.839844 67.433594 151.417969 68.105469 149.015625 68.851562 C 146.613281 69.59375 144.234375 70.410156 141.882812 71.292969 C 139.527344 72.175781 137.199219 73.128906 134.902344 74.148438 C 132.601562 75.167969 130.335938 76.257812 128.101562 77.410156 C 125.867188 78.5625 123.667969 79.78125 121.503906 81.0625 C 119.339844 82.347656 117.21875 83.691406 115.132812 85.097656 C 113.046875 86.503906 111.007812 87.972656 109.007812 89.5 C 107.007812 91.023438 105.058594 92.609375 103.152344 94.25 C 101.246094 95.890625 99.390625 97.585938 97.582031 99.335938 C 95.777344 101.085938 94.023438 102.890625 92.324219 104.742188 C 90.625 106.59375 88.980469 108.496094 87.390625 110.445312 C 85.800781 112.394531 84.269531 114.390625 82.796875 116.429688 C 81.328125 118.46875 79.914062 120.546875 78.566406 122.671875 C 77.214844 124.792969 75.929688 126.953125 74.707031 129.148438 C 73.484375 131.347656 72.324219 133.578125 71.230469 135.84375 C 70.140625 138.109375 69.113281 140.40625 68.15625 142.730469 C 67.199219 145.054688 66.3125 147.40625 65.492188 149.785156 C 64.671875 152.160156 63.921875 154.5625 63.242188 156.984375 C 62.5625 159.40625 61.957031 161.84375 61.421875 164.300781 C 60.882812 166.757812 60.421875 169.230469 60.03125 171.714844 C 59.640625 174.199219 59.320312 176.691406 59.078125 179.195312 C 58.832031 181.699219 58.660156 184.207031 58.5625 186.71875 C 58.464844 189.230469 58.441406 191.746094 58.492188 194.261719 C 58.542969 196.773438 58.664062 199.285156 58.863281 201.792969 C 59.058594 204.300781 59.328125 206.800781 59.671875 209.289062 C 60.015625 211.78125 60.433594 214.261719 60.921875 216.726562 C 61.410156 219.195312 61.972656 221.644531 62.605469 224.078125 C 63.238281 226.511719 63.941406 228.925781 64.714844 231.320312 C 65.492188 233.710938 66.335938 236.082031 67.25 238.421875 C 68.160156 240.765625 69.144531 243.082031 70.191406 245.367188 C 71.242188 247.652344 72.355469 249.90625 73.539062 252.125 C 74.71875 254.347656 75.964844 256.53125 77.273438 258.675781 C 78.582031 260.824219 79.953125 262.933594 81.386719 265 C 82.820312 267.066406 84.3125 269.089844 85.863281 271.066406 C 87.414062 273.046875 89.023438 274.980469 90.6875 276.863281 C 92.355469 278.75 94.074219 280.582031 95.84375 282.367188 C 97.617188 284.152344 99.441406 285.882812 101.316406 287.558594 C 103.191406 289.234375 105.109375 290.855469 107.082031 292.421875 C 109.050781 293.984375 111.0625 295.492188 113.121094 296.9375 C 115.175781 298.382812 117.277344 299.769531 119.414062 301.09375 C 121.554688 302.414062 123.730469 303.675781 125.941406 304.871094 C 128.152344 306.066406 130.398438 307.195312 132.679688 308.257812 C 134.957031 309.324219 137.265625 310.320312 139.601562 311.25 C 141.941406 312.175781 144.300781 313.035156 146.691406 313.824219 C 145.628906 304.128906 145.222656 294.40625 145.46875 284.65625 C 143.476562 284.835938 141.539062 284.984375 139.679688 284.984375 C 138.621094 285.0625 137.558594 285.097656 136.496094 285.089844 C 135.4375 285.082031 134.375 285.03125 133.320312 284.9375 C 132.261719 284.84375 131.207031 284.710938 130.160156 284.53125 C 129.113281 284.355469 128.078125 284.136719 127.046875 283.875 C 126.019531 283.613281 125 283.3125 123.996094 282.972656 C 122.992188 282.628906 122 282.246094 121.027344 281.824219 C 120.050781 281.402344 119.097656 280.941406 118.160156 280.441406 C 117.222656 279.945312 116.304688 279.40625 115.410156 278.835938 C 114.515625 278.261719 113.648438 277.65625 112.800781 277.011719 C 111.957031 276.371094 111.136719 275.695312 110.347656 274.988281 C 109.554688 274.277344 108.792969 273.539062 108.0625 272.769531 C 107.328125 272 106.628906 271.203125 105.960938 270.378906 C 105.292969 269.550781 104.660156 268.703125 104.0625 267.824219 C 103.460938 266.949219 102.898438 266.050781 102.371094 265.128906 C 101.84375 264.207031 101.355469 263.265625 100.90625 262.300781 C 100.453125 261.339844 100.042969 260.363281 99.667969 259.371094 C 99.507812 258.871094 99.398438 258.359375 99.335938 257.835938 C 99.277344 257.316406 99.269531 256.792969 99.316406 256.269531 C 99.359375 255.746094 99.457031 255.234375 99.605469 254.730469 C 99.75 254.226562 99.949219 253.742188 100.191406 253.277344 C 100.4375 252.8125 100.722656 252.375 101.054688 251.96875 C 101.386719 251.558594 101.753906 251.1875 102.160156 250.855469 C 102.5625 250.519531 103 250.230469 103.460938 249.984375 C 103.925781 249.734375 104.410156 249.535156 104.910156 249.386719 C 105.414062 249.234375 105.925781 249.136719 106.449219 249.085938 C 106.972656 249.039062 107.496094 249.042969 108.015625 249.097656 C 108.539062 249.152344 109.050781 249.261719 109.550781 249.417969 C 110.050781 249.578125 110.53125 249.78125 110.992188 250.035156 C 111.453125 250.289062 111.882812 250.585938 112.28125 250.925781 C 112.683594 251.265625 113.046875 251.644531 113.371094 252.054688 C 113.695312 252.46875 113.976562 252.90625 114.214844 253.375 C 114.453125 253.84375 114.640625 254.332031 114.78125 254.835938 C 115.402344 256.746094 122.136719 274.175781 151.648438 267.878906 C 152.152344 267.769531 152.664062 267.707031 153.183594 267.699219 C 153.703125 267.6875 154.21875 267.730469 154.726562 267.820312 C 155.238281 267.914062 155.734375 268.054688 156.214844 268.246094 C 156.699219 268.4375 157.15625 268.671875 157.59375 268.953125 C 158.03125 269.234375 158.433594 269.554688 158.804688 269.917969 C 159.179688 270.277344 159.511719 270.671875 159.804688 271.097656 C 160.097656 271.527344 160.347656 271.976562 160.554688 272.453125 C 160.757812 272.929688 160.914062 273.421875 161.023438 273.929688 C 161.273438 275.195312 161.207031 276.445312 160.824219 277.679688 C 161.023438 278.242188 161.152344 278.816406 161.21875 279.40625 C 161.300781 290.917969 161.414062 311.445312 161.414062 314.738281 C 161.433594 315.820312 161.332031 316.890625 161.117188 317.953125 C 160.898438 319.011719 160.566406 320.035156 160.121094 321.019531 C 159.679688 322.007812 159.132812 322.933594 158.484375 323.800781 C 157.835938 324.664062 157.097656 325.449219 156.277344 326.152344 C 154.898438 327.277344 153.367188 328.128906 151.6875 328.707031 C 150.003906 329.285156 148.273438 329.550781 146.496094 329.511719 C 145.238281 329.515625 143.996094 329.40625 142.761719 329.183594 C 140.0625 328.308594 137.394531 327.351562 134.753906 326.316406 C 132.113281 325.28125 129.507812 324.167969 126.933594 322.980469 C 124.359375 321.789062 121.820312 320.527344 119.320312 319.191406 C 116.820312 317.851562 114.359375 316.441406 111.941406 314.960938 C 109.523438 313.476562 107.152344 311.925781 104.824219 310.300781 C 102.5 308.679688 100.222656 306.992188 97.996094 305.234375 C 95.769531 303.480469 93.597656 301.660156 91.476562 299.773438 C 89.355469 297.890625 87.292969 295.945312 85.289062 293.941406 C 83.28125 291.933594 81.339844 289.871094 79.453125 287.753906 C 77.570312 285.632812 75.75 283.460938 73.992188 281.234375 C 72.238281 279.007812 70.546875 276.730469 68.925781 274.402344 C 67.304688 272.078125 65.75 269.707031 64.269531 267.289062 C 62.785156 264.871094 61.375 262.410156 60.039062 259.910156 C 58.699219 257.410156 57.4375 254.871094 56.246094 252.296875 C 55.058594 249.722656 53.945312 247.117188 52.910156 244.476562 C 51.875 241.835938 50.917969 239.167969 50.039062 236.46875 C 49.164062 233.773438 48.363281 231.054688 47.644531 228.308594 C 46.929688 225.566406 46.289062 222.804688 45.734375 220.023438 C 45.179688 217.242188 44.707031 214.445312 44.316406 211.636719 C 43.921875 208.828125 43.613281 206.011719 43.390625 203.183594 C 43.164062 200.355469 43.023438 197.527344 42.964844 194.691406 C 42.902344 191.855469 42.929688 189.019531 43.035156 186.1875 C 43.144531 183.351562 43.335938 180.523438 43.609375 177.703125 C 43.882812 174.878906 44.242188 172.066406 44.679688 169.265625 C 45.121094 166.464844 45.644531 163.675781 46.246094 160.90625 C 46.851562 158.136719 47.535156 155.382812 48.300781 152.652344 C 49.066406 149.921875 49.910156 147.21875 50.835938 144.535156 C 51.761719 141.855469 52.761719 139.203125 53.84375 136.582031 C 54.925781 133.960938 56.082031 131.371094 57.316406 128.816406 C 58.546875 126.261719 59.855469 123.75 61.234375 121.269531 C 62.617188 118.792969 64.070312 116.359375 65.59375 113.96875 C 67.117188 111.578125 68.710938 109.230469 70.375 106.933594 C 72.035156 104.636719 73.765625 102.390625 75.558594 100.191406 C 77.351562 97.996094 79.210938 95.855469 81.128906 93.769531 C 83.050781 91.683594 85.03125 89.652344 87.070312 87.683594 C 89.109375 85.710938 91.207031 83.804688 93.359375 81.957031 C 95.511719 80.109375 97.714844 78.328125 99.972656 76.609375 C 102.230469 74.894531 104.535156 73.242188 106.890625 71.660156 C 109.242188 70.082031 111.640625 68.570312 114.085938 67.128906 C 116.527344 65.6875 119.011719 64.320312 121.535156 63.027344 C 124.058594 61.730469 126.617188 60.511719 129.210938 59.367188 C 131.804688 58.226562 134.433594 57.160156 137.089844 56.167969 C 139.75 55.179688 142.433594 54.269531 145.144531 53.4375 C 147.855469 52.605469 150.589844 51.855469 153.34375 51.183594 C 156.101562 50.515625 158.875 49.925781 161.664062 49.417969 C 164.453125 48.910156 167.257812 48.484375 170.070312 48.144531 C 172.886719 47.800781 175.710938 47.542969 178.539062 47.363281 C 181.371094 47.1875 184.203125 47.09375 187.039062 47.085938 C 189.875 47.074219 192.710938 47.148438 195.542969 47.304688 C 198.375 47.464844 201.199219 47.703125 204.015625 48.027344 C 206.832031 48.351562 209.636719 48.757812 212.433594 49.246094 C 215.226562 49.734375 218.003906 50.300781 220.761719 50.953125 C 223.523438 51.605469 226.261719 52.339844 228.980469 53.152344 C 231.695312 53.964844 234.386719 54.855469 237.050781 55.828125 C 239.714844 56.796875 242.347656 57.847656 244.953125 58.972656 C 247.554688 60.097656 250.121094 61.300781 252.65625 62.578125 C 255.1875 63.855469 257.679688 65.203125 260.132812 66.628906 C 262.585938 68.050781 264.992188 69.546875 267.359375 71.113281 C 269.722656 72.679688 272.039062 74.3125 274.308594 76.015625 C 276.578125 77.714844 278.792969 79.484375 280.957031 81.316406 C 283.121094 83.148438 285.230469 85.042969 287.285156 86.996094 C 289.339844 88.953125 291.332031 90.96875 293.265625 93.042969 C 295.203125 95.117188 297.074219 97.246094 298.882812 99.429688 C 300.691406 101.613281 302.4375 103.847656 304.113281 106.132812 C 305.792969 108.421875 307.402344 110.753906 308.941406 113.136719 C 310.480469 115.515625 311.953125 117.941406 313.351562 120.40625 C 314.746094 122.875 316.070312 125.382812 317.324219 127.925781 C 318.574219 130.472656 319.746094 133.054688 320.847656 135.667969 C 321.945312 138.28125 322.964844 140.925781 323.910156 143.601562 C 324.851562 146.277344 325.714844 148.976562 326.5 151.699219 C 327.285156 154.425781 327.988281 157.171875 328.609375 159.9375 C 329.234375 162.707031 329.773438 165.488281 330.234375 168.289062 C 330.691406 171.085938 331.066406 173.894531 331.363281 176.714844 C 331.65625 179.539062 331.867188 182.363281 331.992188 185.199219 C 332.121094 188.03125 332.164062 190.863281 332.125 193.699219 C 332.085938 196.535156 331.960938 199.367188 331.757812 202.195312 C 331.550781 205.027344 331.261719 207.847656 330.890625 210.65625 C 330.515625 213.46875 330.0625 216.265625 329.527344 219.050781 C 328.988281 221.835938 328.371094 224.601562 327.671875 227.351562 C 326.972656 230.101562 326.191406 232.824219 325.332031 235.527344 C 324.472656 238.230469 323.535156 240.90625 322.515625 243.550781 C 321.5 246.199219 320.40625 248.816406 319.234375 251.398438 C 318.0625 253.980469 316.816406 256.527344 315.496094 259.035156 C 314.175781 261.546875 312.78125 264.015625 311.316406 266.441406 C 309.851562 268.871094 308.316406 271.253906 306.707031 273.589844 C 305.101562 275.925781 303.429688 278.214844 301.6875 280.453125 C 299.945312 282.691406 298.140625 284.878906 296.273438 287.011719 C 294.402344 289.144531 292.472656 291.21875 290.480469 293.238281 C 288.488281 295.257812 286.4375 297.214844 284.332031 299.113281 C 282.226562 301.011719 280.066406 302.847656 277.851562 304.617188 C 275.636719 306.390625 273.371094 308.09375 271.054688 309.734375 C 268.738281 311.371094 266.378906 312.941406 263.972656 314.4375 C 261.5625 315.9375 259.113281 317.363281 256.621094 318.71875 C 254.132812 320.074219 251.601562 321.355469 249.035156 322.5625 C 246.46875 323.765625 243.867188 324.898438 241.234375 325.949219 C 238.601562 327.003906 235.941406 327.976562 233.25 328.875 Z M 233.347656 328.746094 " fill-opacity="1" fill-rule="nonzero"/></svg>