<svg xmlns="http://www.w3.org/2000/svg" xmlns:xlink="http://www.w3.org/1999/xlink" width="500" zoomAndPan="magnify" viewBox="0 0 375 374.999991" height="500" preserveAspectRatio="xMidYMid meet" version="1.0"><defs><clipPath id="id1"><path d="M 7.300781 7.300781 L 368.050781 7.300781 L 368.050781 368.050781 L 7.300781 368.050781 Z M 7.300781 7.300781 " clip-rule="nonzero"/></clipPath></defs><g clip-path="url(#id1)"><path fill="rgb(44.309998%, 78.819275%, 80.778503%)" d="M 107.507812 7.300781 C 52.171875 7.300781 7.300781 52.171875 7.300781 107.507812 L 7.300781 267.839844 C 7.300781 323.175781 52.171875 368.050781 107.507812 368.050781 L 267.839844 368.050781 C 323.175781 368.050781 368.050781 323.175781 368.050781 267.839844 L 368.050781 107.507812 C 368.050781 52.171875 323.175781 7.300781 267.839844 7.300781 Z M 307.925781 47.382812 C 318.988281 47.382812 327.964844 56.363281 327.964844 67.425781 C 327.964844 78.488281 318.988281 87.464844 307.925781 87.464844 C 296.863281 87.464844 287.882812 78.488281 287.882812 67.425781 C 287.882812 56.363281 296.863281 47.382812 307.925781 47.382812 Z M 187.675781 87.464844 C 243.007812 87.464844 287.882812 132.339844 287.882812 187.675781 C 287.882812 243.007812 243.007812 287.882812 187.675781 287.882812 C 132.339844 287.882812 87.464844 243.007812 87.464844 187.675781 C 87.464844 132.339844 132.339844 87.464844 187.675781 87.464844 Z M 187.675781 127.550781 C 185.707031 127.550781 183.742188 127.644531 181.78125 127.839844 C 179.820312 128.03125 177.875 128.320312 175.945312 128.703125 C 174.011719 129.089844 172.105469 129.566406 170.222656 130.136719 C 168.335938 130.710938 166.484375 131.371094 164.664062 132.125 C 162.847656 132.878906 161.070312 133.722656 159.332031 134.648438 C 157.59375 135.578125 155.910156 136.589844 154.269531 137.683594 C 152.632812 138.777344 151.054688 139.949219 149.53125 141.199219 C 148.007812 142.445312 146.550781 143.765625 145.160156 145.160156 C 143.765625 146.550781 142.445312 148.007812 141.199219 149.53125 C 139.949219 151.054688 138.777344 152.632812 137.683594 154.269531 C 136.589844 155.910156 135.578125 157.59375 134.648438 159.332031 C 133.722656 161.070312 132.878906 162.847656 132.125 164.664062 C 131.371094 166.484375 130.710938 168.335938 130.136719 170.222656 C 129.566406 172.105469 129.089844 174.011719 128.703125 175.945312 C 128.320312 177.875 128.03125 179.820312 127.839844 181.78125 C 127.644531 183.742188 127.550781 185.707031 127.550781 187.675781 C 127.550781 189.644531 127.644531 191.609375 127.839844 193.566406 C 128.03125 195.527344 128.320312 197.472656 128.703125 199.40625 C 129.089844 201.335938 129.566406 203.242188 130.136719 205.128906 C 130.710938 207.011719 131.371094 208.863281 132.125 210.683594 C 132.878906 212.503906 133.722656 214.28125 134.648438 216.015625 C 135.578125 217.753906 136.589844 219.441406 137.683594 221.078125 C 138.777344 222.714844 139.949219 224.296875 141.199219 225.816406 C 142.445312 227.339844 143.765625 228.796875 145.160156 230.1875 C 146.550781 231.582031 148.007812 232.902344 149.53125 234.152344 C 151.054688 235.402344 152.632812 236.574219 154.269531 237.667969 C 155.910156 238.761719 157.59375 239.773438 159.332031 240.699219 C 161.070312 241.628906 162.847656 242.46875 164.664062 243.222656 C 166.484375 243.976562 168.335938 244.640625 170.222656 245.210938 C 172.105469 245.78125 174.011719 246.261719 175.945312 246.644531 C 177.875 247.027344 179.820312 247.316406 181.78125 247.511719 C 183.742188 247.703125 185.707031 247.800781 187.675781 247.800781 C 189.644531 247.800781 191.609375 247.703125 193.566406 247.511719 C 195.527344 247.316406 197.472656 247.027344 199.40625 246.644531 C 201.335938 246.261719 203.242188 245.78125 205.128906 245.210938 C 207.011719 244.640625 208.863281 243.976562 210.683594 243.222656 C 212.503906 242.46875 214.28125 241.628906 216.015625 240.699219 C 217.753906 239.773438 219.441406 238.761719 221.078125 237.667969 C 222.714844 236.574219 224.296875 235.402344 225.816406 234.152344 C 227.339844 232.902344 228.796875 231.582031 230.1875 230.1875 C 231.582031 228.796875 232.902344 227.339844 234.152344 225.816406 C 235.402344 224.296875 236.574219 222.714844 237.667969 221.078125 C 238.761719 219.441406 239.773438 217.753906 240.699219 216.015625 C 241.628906 214.28125 242.46875 212.503906 243.222656 210.683594 C 243.976562 208.863281 244.640625 207.011719 245.210938 205.128906 C 245.78125 203.242188 246.261719 201.335938 246.644531 199.40625 C 247.027344 197.472656 247.316406 195.527344 247.511719 193.566406 C 247.703125 191.609375 247.800781 189.644531 247.800781 187.675781 C 247.800781 185.707031 247.703125 183.742188 247.511719 181.78125 C 247.316406 179.820312 247.027344 177.875 246.644531 175.945312 C 246.261719 174.011719 245.78125 172.105469 245.210938 170.222656 C 244.640625 168.335938 243.976562 166.484375 243.222656 164.664062 C 242.46875 162.847656 241.628906 161.070312 240.699219 159.332031 C 239.773438 157.59375 238.761719 155.910156 237.667969 154.269531 C 236.574219 152.632812 235.402344 151.054688 234.152344 149.53125 C 232.902344 148.007812 231.582031 146.550781 230.1875 145.160156 C 228.796875 143.765625 227.339844 142.445312 225.816406 141.199219 C 224.296875 139.949219 222.714844 138.777344 221.078125 137.683594 C 219.441406 136.589844 217.753906 135.578125 216.015625 134.648438 C 214.28125 133.722656 212.503906 132.878906 210.683594 132.125 C 208.863281 131.371094 207.011719 130.710938 205.128906 130.136719 C 203.242188 129.566406 201.335938 129.089844 199.40625 128.703125 C 197.472656 128.320312 195.527344 128.03125 193.566406 127.839844 C 191.609375 127.644531 189.644531 127.550781 187.675781 127.550781 Z M 187.675781 127.550781 " fill-opacity="1" fill-rule="nonzero"/></g></svg>