<svg xmlns="http://www.w3.org/2000/svg" xmlns:xlink="http://www.w3.org/1999/xlink" width="500" zoomAndPan="magnify" viewBox="0 0 375 374.999991" height="500" preserveAspectRatio="xMidYMid meet" version="1.0"><defs><clipPath id="id1"><path d="M 10.292969 10.292969 L 365.039062 10.292969 L 365.039062 365.039062 L 10.292969 365.039062 Z M 10.292969 10.292969 " clip-rule="nonzero"/></clipPath></defs><g clip-path="url(#id1)"><path fill="rgb(44.309998%, 78.819275%, 80.778503%)" d="M 325.625 10.292969 L 49.707031 10.292969 C 27.929688 10.292969 10.292969 27.929688 10.292969 49.707031 L 10.292969 325.625 C 10.292969 347.402344 27.929688 365.039062 49.707031 365.039062 L 325.625 365.039062 C 347.402344 365.039062 365.042969 347.402344 365.042969 325.625 L 365.042969 49.707031 C 365.042969 27.929688 347.402344 10.292969 325.625 10.292969 Z M 128.542969 286.207031 L 78.816406 286.207031 L 78.816406 148.25 L 128.542969 148.25 Z M 102.800781 122.964844 C 87.605469 122.964844 77.457031 112.832031 77.457031 99.3125 C 77.457031 85.792969 87.585938 75.664062 104.476562 75.664062 C 119.671875 75.664062 129.820312 85.792969 129.820312 99.3125 C 129.820312 112.832031 119.691406 122.964844 102.800781 122.964844 Z M 305.917969 286.207031 L 257.789062 286.207031 L 257.789062 210.804688 C 257.789062 189.953125 244.957031 185.144531 240.148438 185.144531 C 235.339844 185.144531 219.296875 188.355469 219.296875 210.804688 C 219.296875 214.015625 219.296875 286.207031 219.296875 286.207031 L 169.574219 286.207031 L 169.574219 148.25 L 219.296875 148.25 L 219.296875 167.503906 C 225.703125 156.269531 238.535156 148.25 262.597656 148.25 C 286.660156 148.25 305.917969 167.503906 305.917969 210.804688 Z M 305.917969 286.207031 " fill-opacity="1" fill-rule="nonzero"/></g></svg>