<svg xmlns="http://www.w3.org/2000/svg" xmlns:xlink="http://www.w3.org/1999/xlink" width="500" zoomAndPan="magnify" viewBox="0 0 375 374.999991" height="500" preserveAspectRatio="xMidYMid meet" version="1.0"><defs><clipPath id="id1"><path d="M 10.164062 10.164062 L 364.914062 10.164062 L 364.914062 364.914062 L 10.164062 364.914062 Z M 10.164062 10.164062 " clip-rule="nonzero"/></clipPath></defs><g clip-path="url(#id1)"><path fill="rgb(44.309998%, 78.819275%, 80.778503%)" d="M 320.570312 364.914062 L 54.507812 364.914062 C 30.027344 364.914062 10.164062 345.046875 10.164062 320.570312 L 10.164062 54.507812 C 10.164062 30.027344 30.027344 10.164062 54.507812 10.164062 L 320.570312 10.164062 C 345.046875 10.164062 364.914062 30.027344 364.914062 54.507812 L 364.914062 320.570312 C 364.914062 345.046875 345.046875 364.914062 320.570312 364.914062 Z M 146.386719 277.644531 C 230.019531 277.644531 275.78125 208.289062 275.78125 148.25 C 275.78125 146.296875 275.78125 144.347656 275.691406 142.394531 C 284.5625 136.011719 292.277344 127.9375 298.398438 118.804688 C 290.238281 122.441406 281.457031 124.835938 272.234375 125.988281 C 281.632812 120.402344 288.816406 111.441406 292.277344 100.800781 C 283.496094 106.035156 273.742188 109.757812 263.363281 111.796875 C 255.027344 102.929688 243.234375 97.429688 230.195312 97.429688 C 205.097656 97.429688 184.699219 117.828125 184.699219 142.925781 C 184.699219 146.476562 185.144531 149.933594 185.851562 153.304688 C 148.070312 151.441406 114.546875 133.261719 92.109375 105.765625 C 88.207031 112.507812 85.988281 120.3125 85.988281 128.648438 C 85.988281 144.433594 94.0625 158.359375 106.210938 166.519531 C 98.761719 166.253906 91.753906 164.210938 85.636719 160.84375 C 85.636719 161.019531 85.636719 161.195312 85.636719 161.464844 C 85.636719 183.457031 101.332031 201.90625 122.085938 206.074219 C 118.273438 207.136719 114.28125 207.667969 110.113281 207.667969 C 107.1875 207.667969 104.347656 207.402344 101.597656 206.871094 C 107.363281 224.964844 124.214844 238.089844 144.082031 238.445312 C 128.472656 250.683594 108.871094 257.957031 87.585938 257.957031 C 83.949219 257.957031 80.3125 257.777344 76.765625 257.335938 C 96.808594 270.105469 120.753906 277.644531 146.386719 277.644531 " fill-opacity="1" fill-rule="nonzero"/></g></svg>